<?xml version="1.0" encoding="utf-8"?>
<!DOCTYPE svg PUBLIC "-//W3C//DTD SVG 1.1//EN" "http://www.w3.org/Graphics/SVG/1.1/DTD/svg11.dtd">
<svg version="1.1" xmlns="http://www.w3.org/2000/svg" xmlns:xlink="http://www.w3.org/1999/xlink" viewBox="0 0 24 24" xml:space="preserve">
  <path d="M12,17c-2.8,0-5-2.2-5-5s2.2-5,5-5s5,2.2,5,5S14.8,17,12,17z M12,9c-1.7,0-3,1.3-3,3s1.3,3,3,3s3-1.3,3-3S13.7,9,12,9z"/><path d="M17,22h-5C6.5,22,2,17.5,2,12C2,6.5,6.5,2,12,2c5.5,0,10,4.5,10,10v1.5c0,1.9-1.6,3.5-3.5,3.5S15,15.4,15,13.5V12h2v1.5 c0,0.8,0.7,1.5,1.5,1.5s1.5-0.7,1.5-1.5V12c0-4.4-3.6-8-8-8s-8,3.6-8,8s3.6,8,8,8h5V22z"/>
</svg>
